<svg id="Layer_1" data-name="Layer 1" xmlns="http://www.w3.org/2000/svg" viewBox="0 0 895.2094 323.8866"><defs><style>.cls-1,.cls-2{fill:none;stroke-linecap:round;stroke-linejoin:round;stroke-width:0.0283px;}.cls-1{stroke:#ed1e79;}.cls-2{stroke:#000;}</style></defs><g id="hex_feet" data-name="hex feet"><polygon class="cls-1" points="450.264 59.187 452.924 63.794 450.264 68.4 444.945 68.4 442.286 63.794 444.945 59.187 450.264 59.187"/><polygon class="cls-1" points="809.197 59.187 811.857 63.794 809.197 68.4 803.878 68.4 801.219 63.794 803.878 59.187 809.197 59.187"/><polygon class="cls-1" points="91.331 59.187 93.991 63.794 91.331 68.4 86.012 68.4 83.353 63.794 86.012 59.187 91.331 59.187"/></g><g id="top_bottom_screws" data-name="top bottom screws"><circle class="cls-1" cx="12.7701" cy="12.7701" r="3.189"/><circle class="cls-1" cx="302.6598" cy="12.7701" r="3.189"/><circle class="cls-1" cx="592.5496" cy="12.7701" r="3.189"/><circle class="cls-1" cx="882.4394" cy="12.7701" r="3.189"/><circle class="cls-1" cx="12.7701" cy="311.1165" r="3.189"/><circle class="cls-1" cx="302.6598" cy="311.1165" r="3.189"/><circle class="cls-1" cx="592.5496" cy="311.1165" r="3.189"/><circle class="cls-1" cx="882.4394" cy="311.1165" r="3.189"/></g><rect id="case_outline" data-name="case outline" class="cls-2" x="0.0142" y="0.0142" width="895.1811" height="323.8583" rx="5.6693"/></svg>