<svg id="Layer_1" data-name="Layer 1" xmlns="http://www.w3.org/2000/svg" viewBox="0 0 895.2094 323.8866"><defs><style>.cls-1,.cls-2{fill:none;stroke-linecap:round;stroke-linejoin:round;}.cls-1{stroke:#662d91;stroke-width:0.0283px;}.cls-2{stroke:#ed1e79;stroke-width:0.0283px;}</style></defs><path id="pcb_cutout_-_usb" data-name="pcb cutout - usb" class="cls-1" d="M160.73,193.0386V462.4719a4.5355,4.5355,0,0,0,4.5354,4.5355h860.5992a4.5355,4.5355,0,0,0,4.5354-4.5355V193.0386a4.5354,4.5354,0,0,0-4.5354-4.5354h-410.86a1.4173,1.4173,0,0,1-1.4174-1.4173V169.1875a1.4172,1.4172,0,0,1,.51-1.0891l2.3332-1.9431a1.4173,1.4173,0,0,1,.907-.3282H1037.487a5.6693,5.6693,0,0,1,5.6693,5.6693v312.52a5.6692,5.6692,0,0,1-5.6693,5.6692H153.6445a5.6692,5.6692,0,0,1-5.6693-5.6692v-312.52a5.6693,5.6693,0,0,1,5.6693-5.6693H573.7924a1.4173,1.4173,0,0,1,.907.3282l2.3332,1.9431a1.4171,1.4171,0,0,1,.51,1.0891v17.8984a1.4172,1.4172,0,0,1-1.4173,1.4173h-410.86A4.5354,4.5354,0,0,0,160.73,193.0386Z" transform="translate(-147.961 -165.8129)"/><g id="middle_screws" data-name="middle screws"><polygon class="cls-2" points="15.43 8.164 18.089 12.77 15.43 17.376 10.111 17.376 7.451 12.77 10.111 8.164 15.43 8.164"/><polygon class="cls-2" points="305.319 8.164 307.979 12.77 305.319 17.376 300 17.376 297.341 12.77 300 8.164 305.319 8.164"/><polygon class="cls-2" points="595.209 8.164 597.868 12.77 595.209 17.376 589.89 17.376 587.231 12.77 589.89 8.164 595.209 8.164"/><polygon class="cls-2" points="885.099 8.164 887.758 12.77 885.099 17.376 879.78 17.376 877.12 12.77 879.78 8.164 885.099 8.164"/><polygon class="cls-2" points="15.43 306.51 18.089 311.117 15.43 315.723 10.111 315.723 7.451 311.117 10.111 306.51 15.43 306.51"/><polygon class="cls-2" points="305.319 306.51 307.979 311.117 305.319 315.723 300 315.723 297.341 311.117 300 306.51 305.319 306.51"/><polygon class="cls-2" points="595.209 306.51 597.868 311.117 595.209 315.723 589.89 315.723 587.231 311.117 589.89 306.51 595.209 306.51"/><polygon class="cls-2" points="885.099 306.51 887.758 311.117 885.099 315.723 879.78 315.723 877.12 311.117 879.78 306.51 885.099 306.51"/></g></svg>