<svg id="Layer_1" data-name="Layer 1" xmlns="http://www.w3.org/2000/svg" viewBox="0 0 895.2094 323.8866"><defs><style>.cls-1,.cls-2,.cls-3{fill:none;stroke-linecap:round;stroke-linejoin:round;stroke-width:0.0283px;}.cls-1{stroke:#754c24;}.cls-2{stroke:#ed1e79;}.cls-3{stroke:#000;}</style></defs><rect id="pcb_cutout" data-name="pcb cutout" class="cls-1" x="12.7691" y="22.6903" width="869.67" height="278.5042" rx="4.5354"/><g id="middle_screws" data-name="middle screws"><polygon class="cls-2" points="15.43 8.164 18.089 12.77 15.43 17.376 10.111 17.376 7.451 12.77 10.111 8.164 15.43 8.164"/><polygon class="cls-2" points="305.319 8.164 307.979 12.77 305.319 17.376 300 17.376 297.341 12.77 300 8.164 305.319 8.164"/><polygon class="cls-2" points="595.209 8.164 597.869 12.77 595.209 17.376 589.89 17.376 587.231 12.77 589.89 8.164 595.209 8.164"/><polygon class="cls-2" points="885.099 8.164 887.758 12.77 885.099 17.376 879.78 17.376 877.12 12.77 879.78 8.164 885.099 8.164"/><polygon class="cls-2" points="15.43 306.51 18.089 311.117 15.43 315.723 10.111 315.723 7.451 311.117 10.111 306.51 15.43 306.51"/><polygon class="cls-2" points="305.319 306.51 307.979 311.117 305.319 315.723 300 315.723 297.341 311.117 300 306.51 305.319 306.51"/><polygon class="cls-2" points="595.209 306.51 597.869 311.117 595.209 315.723 589.89 315.723 587.231 311.117 589.89 306.51 595.209 306.51"/><polygon class="cls-2" points="885.099 306.51 887.758 311.117 885.099 315.723 879.78 315.723 877.12 311.117 879.78 306.51 885.099 306.51"/></g><rect id="case_outline" data-name="case outline" class="cls-3" x="0.0142" y="0.0142" width="895.1811" height="323.8583" rx="5.6693"/></svg>