<svg id="Layer_1" data-name="Layer 1" xmlns="http://www.w3.org/2000/svg" viewBox="0 0 895.2094 323.8866"><defs><style>.cls-1,.cls-2,.cls-3{fill:none;stroke-linecap:round;stroke-linejoin:round;stroke-width:0.0283px;}.cls-1{stroke:#ed1e79;}.cls-2{stroke:#754c24;}.cls-3{stroke:#000;}</style></defs><g id="plate_flex_cuts" data-name="plate flex cuts"><rect class="cls-1" x="878.1871" y="53.9433" width="4.252" height="216" rx="0.7087"/><rect class="cls-1" x="12.7701" y="53.9424" width="4.252" height="216" rx="0.7087"/><rect class="cls-1" x="216.3154" y="296.9425" width="381.5787" height="4.252" rx="0.7087"/></g><g id="ai_plate_full" data-name="ai plate full"><g id="ARC"><rect class="cls-2" x="22.7622" y="34.1008" width="39.685" height="39.685" rx="1.4173"/></g><g id="ARC-2" data-name="ARC"><rect class="cls-2" x="76.7622" y="34.1008" width="39.685" height="39.685" rx="1.4173"/></g><g id="ARC-3" data-name="ARC"><rect class="cls-2" x="130.7622" y="34.1008" width="39.685" height="39.685" rx="1.4173"/></g><g id="ARC-4" data-name="ARC"><rect class="cls-2" x="184.7622" y="34.1008" width="39.685" height="39.685" rx="1.4173"/></g><g id="ARC-5" data-name="ARC"><rect class="cls-2" x="238.7622" y="34.1008" width="39.685" height="39.685" rx="1.4173"/></g><g id="ARC-6" data-name="ARC"><rect class="cls-2" x="292.7622" y="34.1008" width="39.685" height="39.685" rx="1.4173"/></g><g id="ARC-7" data-name="ARC"><rect class="cls-2" x="346.7622" y="34.1008" width="39.685" height="39.685" rx="1.4173"/></g><g id="ARC-8" data-name="ARC"><rect class="cls-2" x="400.7622" y="34.1008" width="39.685" height="39.685" rx="1.4173"/></g><g id="ARC-9" data-name="ARC"><rect class="cls-2" x="454.7622" y="34.1008" width="39.685" height="39.685" rx="1.4173"/></g><g id="ARC-10" data-name="ARC"><rect class="cls-2" x="508.7622" y="34.1008" width="39.685" height="39.685" rx="1.4173"/></g><g id="ARC-11" data-name="ARC"><rect class="cls-2" x="562.7622" y="34.1008" width="39.685" height="39.685" rx="1.4173"/></g><g id="ARC-12" data-name="ARC"><rect class="cls-2" x="616.7622" y="34.1008" width="39.685" height="39.685" rx="1.4173"/></g><g id="ARC-13" data-name="ARC"><rect class="cls-2" x="670.7622" y="34.1008" width="39.685" height="39.685" rx="1.4173"/></g><g id="ARC-14" data-name="ARC"><rect class="cls-2" x="832.7622" y="34.1008" width="39.685" height="39.685" rx="1.4173"/></g><g id="ARC-15" data-name="ARC"><rect class="cls-2" x="36.2622" y="88.1008" width="39.685" height="39.685" rx="1.4173"/></g><g id="ARC-16" data-name="ARC"><rect class="cls-2" x="832.7622" y="88.1008" width="39.685" height="39.685" rx="1.4173"/></g><g id="ARC-17" data-name="ARC"><rect class="cls-2" x="832.7622" y="142.1008" width="39.685" height="39.685" rx="1.4173"/></g><g id="ARC-18" data-name="ARC"><rect class="cls-2" x="56.5122" y="196.1008" width="39.685" height="39.685" rx="1.4173"/></g><g id="ARC-19" data-name="ARC"><rect class="cls-2" x="100.2735" y="196.1008" width="19.8425" height="45.3543" rx="1.4173"/></g><g id="ARC-20" data-name="ARC"><rect class="cls-2" x="32.5935" y="196.1008" width="19.8425" height="45.3543" rx="1.4173"/></g><g id="ARC-21" data-name="ARC"><rect class="cls-2" x="778.7622" y="196.1008" width="39.685" height="39.685" rx="1.4173"/></g><g id="ARC-22" data-name="ARC"><rect class="cls-2" x="832.7622" y="196.1008" width="39.685" height="39.685" rx="1.4173"/></g><g id="ARC-23" data-name="ARC"><rect class="cls-2" x="36.2622" y="250.1008" width="39.685" height="39.685" rx="1.4173"/></g><g id="ARC-24" data-name="ARC"><rect class="cls-2" x="157.7622" y="250.1008" width="39.685" height="39.685" rx="1.4173"/></g><g id="ARC-25" data-name="ARC"><rect class="cls-2" x="387.2622" y="250.1008" width="39.685" height="39.685" rx="1.4173"/></g><g id="ARC-26" data-name="ARC"><rect class="cls-2" x="235.1835" y="244.4315" width="19.8425" height="45.3543" rx="1.4173"/></g><g id="ARC-27" data-name="ARC"><rect class="cls-2" x="559.1835" y="244.4315" width="19.8425" height="45.3543" rx="1.4173"/></g><g id="ARC-28" data-name="ARC"><rect class="cls-2" x="616.7622" y="250.1008" width="39.685" height="39.685" rx="1.4173"/></g><g id="ARC-29" data-name="ARC"><rect class="cls-2" x="724.7622" y="250.1008" width="39.685" height="39.685" rx="1.4173"/></g><g id="ARC-30" data-name="ARC"><rect class="cls-2" x="778.7622" y="250.1008" width="39.685" height="39.685" rx="1.4173"/></g><g id="ARC-31" data-name="ARC"><rect class="cls-2" x="832.7622" y="250.1008" width="39.685" height="39.685" rx="1.4173"/></g><g id="ARC-32" data-name="ARC"><rect class="cls-2" x="103.7622" y="88.1008" width="39.685" height="39.685" rx="1.4173"/></g><g id="ARC-33" data-name="ARC"><rect class="cls-2" x="157.7622" y="88.1008" width="39.685" height="39.685" rx="1.4173"/></g><g id="ARC-34" data-name="ARC"><rect class="cls-2" x="211.7622" y="88.1008" width="39.685" height="39.685" rx="1.4173"/></g><g id="ARC-35" data-name="ARC"><rect class="cls-2" x="265.7622" y="88.1008" width="39.685" height="39.685" rx="1.4173"/></g><g id="ARC-36" data-name="ARC"><rect class="cls-2" x="319.7622" y="88.1008" width="39.685" height="39.685" rx="1.4173"/></g><g id="ARC-37" data-name="ARC"><rect class="cls-2" x="373.7622" y="88.1008" width="39.685" height="39.685" rx="1.4173"/></g><g id="ARC-38" data-name="ARC"><rect class="cls-2" x="427.7622" y="88.1008" width="39.685" height="39.685" rx="1.4173"/></g><g id="ARC-39" data-name="ARC"><rect class="cls-2" x="481.7622" y="88.1008" width="39.685" height="39.685" rx="1.4173"/></g><g id="ARC-40" data-name="ARC"><rect class="cls-2" x="535.7622" y="88.1008" width="39.685" height="39.685" rx="1.4173"/></g><g id="ARC-41" data-name="ARC"><rect class="cls-2" x="589.7622" y="88.1008" width="39.685" height="39.685" rx="1.4173"/></g><g id="ARC-42" data-name="ARC"><rect class="cls-2" x="643.7622" y="88.1008" width="39.685" height="39.685" rx="1.4173"/></g><g id="ARC-43" data-name="ARC"><rect class="cls-2" x="697.7622" y="88.1008" width="39.685" height="39.685" rx="1.4173"/></g><g id="ARC-44" data-name="ARC"><rect class="cls-2" x="765.2622" y="88.1008" width="39.685" height="39.685" rx="1.4173"/></g><g id="ARC-45" data-name="ARC"><rect class="cls-2" x="117.2622" y="142.1008" width="39.685" height="39.685" rx="1.4173"/></g><g id="ARC-46" data-name="ARC"><rect class="cls-2" x="171.2622" y="142.1008" width="39.685" height="39.685" rx="1.4173"/></g><g id="ARC-47" data-name="ARC"><rect class="cls-2" x="225.2622" y="142.1008" width="39.685" height="39.685" rx="1.4173"/></g><g id="ARC-48" data-name="ARC"><rect class="cls-2" x="279.2622" y="142.1008" width="39.685" height="39.685" rx="1.4173"/></g><g id="ARC-49" data-name="ARC"><rect class="cls-2" x="333.2622" y="142.1008" width="39.685" height="39.685" rx="1.4173"/></g><g id="ARC-50" data-name="ARC"><rect class="cls-2" x="387.2622" y="142.1008" width="39.685" height="39.685" rx="1.4173"/></g><g id="ARC-51" data-name="ARC"><rect class="cls-2" x="441.2622" y="142.1008" width="39.685" height="39.685" rx="1.4173"/></g><g id="ARC-52" data-name="ARC"><rect class="cls-2" x="495.2622" y="142.1008" width="39.685" height="39.685" rx="1.4173"/></g><g id="ARC-53" data-name="ARC"><rect class="cls-2" x="549.2622" y="142.1008" width="39.685" height="39.685" rx="1.4173"/></g><g id="ARC-54" data-name="ARC"><rect class="cls-2" x="603.2622" y="142.1008" width="39.685" height="39.685" rx="1.4173"/></g><g id="ARC-55" data-name="ARC"><rect class="cls-2" x="657.2622" y="142.1008" width="39.685" height="39.685" rx="1.4173"/></g><g id="ARC-56" data-name="ARC"><rect class="cls-2" x="745.0122" y="142.1008" width="39.685" height="39.685" rx="1.4173"/></g><g id="ARC-57" data-name="ARC"><rect class="cls-2" x="788.7735" y="142.1008" width="19.8425" height="45.3543" rx="1.4173"/></g><g id="ARC-58" data-name="ARC"><rect class="cls-2" x="721.0935" y="142.1008" width="19.8425" height="45.3543" rx="1.4173"/></g><g id="ARC-59" data-name="ARC"><rect class="cls-2" x="144.2622" y="196.1008" width="39.685" height="39.685" rx="1.4173"/></g><g id="ARC-60" data-name="ARC"><rect class="cls-2" x="198.2622" y="196.1008" width="39.685" height="39.685" rx="1.4173"/></g><g id="ARC-61" data-name="ARC"><rect class="cls-2" x="252.2622" y="196.1008" width="39.685" height="39.685" rx="1.4173"/></g><g id="ARC-62" data-name="ARC"><rect class="cls-2" x="306.2622" y="196.1008" width="39.685" height="39.685" rx="1.4173"/></g><g id="ARC-63" data-name="ARC"><rect class="cls-2" x="360.2622" y="196.1008" width="39.685" height="39.685" rx="1.4173"/></g><g id="ARC-64" data-name="ARC"><rect class="cls-2" x="414.2622" y="196.1008" width="39.685" height="39.685" rx="1.4173"/></g><g id="ARC-65" data-name="ARC"><rect class="cls-2" x="468.2622" y="196.1008" width="39.685" height="39.685" rx="1.4173"/></g><g id="ARC-66" data-name="ARC"><rect class="cls-2" x="522.2622" y="196.1008" width="39.685" height="39.685" rx="1.4173"/></g><g id="ARC-67" data-name="ARC"><rect class="cls-2" x="576.2622" y="196.1008" width="39.685" height="39.685" rx="1.4173"/></g><g id="ARC-68" data-name="ARC"><rect class="cls-2" x="630.2622" y="196.1008" width="39.685" height="39.685" rx="1.4173"/></g><g id="ARC-69" data-name="ARC"><rect class="cls-2" x="704.5122" y="196.1008" width="39.685" height="39.685" rx="1.4173"/></g><g id="LINE"><rect class="cls-2" x="29.5131" y="142.1008" width="53.1842" height="39.685" rx="1.4173"/></g><g id="ARC-70" data-name="ARC"><path class="cls-2" d="M875.8045,243.8507v-4.252h-1.6639a1.4173,1.4173,0,0,1-1.4174-1.4173v-36.85a1.4173,1.4173,0,0,1,1.4174-1.4173h90.85a1.4173,1.4173,0,0,1,1.4174,1.4173v36.85a1.4173,1.4173,0,0,1-1.4174,1.4173H963.327v4.252a1.4172,1.4172,0,0,1-1.4173,1.4173H944.9018a1.4172,1.4172,0,0,1-1.4173-1.4173v-4.252H895.647v4.252a1.4172,1.4172,0,0,1-1.4173,1.4173H877.2218A1.4172,1.4172,0,0,1,875.8045,243.8507Z" transform="translate(-147.961 -165.8129)"/></g></g><g id="middle_screws" data-name="middle screws"><polygon class="cls-1" points="15.43 8.164 18.089 12.77 15.43 17.376 10.111 17.376 7.451 12.77 10.111 8.164 15.43 8.164"/><polygon class="cls-1" points="305.319 8.164 307.979 12.77 305.319 17.376 300 17.376 297.341 12.77 300 8.164 305.319 8.164"/><polygon class="cls-1" points="595.209 8.164 597.869 12.77 595.209 17.376 589.89 17.376 587.231 12.77 589.89 8.164 595.209 8.164"/><polygon class="cls-1" points="885.099 8.164 887.758 12.77 885.099 17.376 879.78 17.376 877.12 12.77 879.78 8.164 885.099 8.164"/><polygon class="cls-1" points="15.43 306.51 18.089 311.117 15.43 315.723 10.111 315.723 7.451 311.117 10.111 306.51 15.43 306.51"/><polygon class="cls-1" points="305.319 306.51 307.979 311.117 305.319 315.723 300 315.723 297.341 311.117 300 306.51 305.319 306.51"/><polygon class="cls-1" points="595.209 306.51 597.869 311.117 595.209 315.723 589.89 315.723 587.231 311.117 589.89 306.51 595.209 306.51"/><polygon class="cls-1" points="885.099 306.51 887.758 311.117 885.099 315.723 879.78 315.723 877.12 311.117 879.78 306.51 885.099 306.51"/></g><rect id="case_outline" data-name="case outline" class="cls-3" x="0.0142" y="0.0142" width="895.1811" height="323.8583" rx="5.6693"/></svg>