<svg id="Layer_1" data-name="Layer 1" xmlns="http://www.w3.org/2000/svg" viewBox="0 0 895.2094 323.8866"><defs><style>.cls-1,.cls-2,.cls-3{fill:none;stroke-linecap:round;stroke-linejoin:round;}.cls-1{stroke:#ed1e79;}.cls-1,.cls-2{stroke-width:0.0283px;}.cls-2{stroke:#000;}.cls-3{stroke:#006837;stroke-width:0.0283px;}</style></defs><g id="hex_feet" data-name="hex feet"><polygon class="cls-1" points="450.264 59.187 452.924 63.794 450.264 68.4 444.945 68.4 442.286 63.794 444.945 59.187 450.264 59.187"/><polygon class="cls-1" points="809.197 59.187 811.857 63.794 809.197 68.4 803.878 68.4 801.219 63.794 803.878 59.187 809.197 59.187"/><polygon class="cls-1" points="91.331 59.187 93.991 63.794 91.331 68.4 86.012 68.4 83.353 63.794 86.012 59.187 91.331 59.187"/></g><rect id="big_foot" data-name="big foot" class="cls-2" x="53.589" y="35.4472" width="788.0315" height="56.6929" rx="28.3464"/><path id="top_cutout" data-name="top cutout" class="cls-3" d="M162.1484,195.8743V459.6381a4.5354,4.5354,0,0,0,4.5355,4.5354h74.7637a4.5354,4.5354,0,0,0,4.5355-4.5354V411.5909a1.4173,1.4173,0,0,1,1.4173-1.4174h34.8307a1.4173,1.4173,0,0,1,1.4173,1.4174v48.0472a4.5354,4.5354,0,0,0,4.5355,4.5354H821.9476a4.5354,4.5354,0,0,0,4.5355-4.5354V411.5909a1.4173,1.4173,0,0,1,1.4173-1.4174h34.8307a1.4173,1.4173,0,0,1,1.4173,1.4174v48.0472a4.5354,4.5354,0,0,0,4.5355,4.5354h155.7637a4.5354,4.5354,0,0,0,4.5355-4.5354V195.8743a4.5355,4.5355,0,0,0-4.5355-4.5354H166.6839A4.5355,4.5355,0,0,0,162.1484,195.8743Z" transform="translate(-147.961 -165.8129)"/><g id="middle_screws" data-name="middle screws"><polygon class="cls-1" points="15.43 8.164 18.089 12.77 15.43 17.376 10.111 17.376 7.451 12.77 10.111 8.164 15.43 8.164"/><polygon class="cls-1" points="305.319 8.164 307.979 12.77 305.319 17.376 300 17.376 297.341 12.77 300 8.164 305.319 8.164"/><polygon class="cls-1" points="595.209 8.164 597.869 12.77 595.209 17.376 589.89 17.376 587.231 12.77 589.89 8.164 595.209 8.164"/><polygon class="cls-1" points="885.099 8.164 887.758 12.77 885.099 17.376 879.78 17.376 877.12 12.77 879.78 8.164 885.099 8.164"/><polygon class="cls-1" points="15.43 306.51 18.089 311.117 15.43 315.723 10.111 315.723 7.451 311.117 10.111 306.51 15.43 306.51"/><polygon class="cls-1" points="305.319 306.51 307.979 311.117 305.319 315.723 300 315.723 297.341 311.117 300 306.51 305.319 306.51"/><polygon class="cls-1" points="595.209 306.51 597.869 311.117 595.209 315.723 589.89 315.723 587.231 311.117 589.89 306.51 595.209 306.51"/><polygon class="cls-1" points="885.099 306.51 887.758 311.117 885.099 315.723 879.78 315.723 877.12 311.117 879.78 306.51 885.099 306.51"/></g><rect id="case_outline" data-name="case outline" class="cls-2" x="0.0142" y="0.0142" width="895.1811" height="323.8583" rx="5.6693"/></svg>