<svg id="Layer_1" data-name="Layer 1" xmlns="http://www.w3.org/2000/svg" viewBox="0 0 895.2094 323.8866"><defs><style>.cls-1,.cls-2,.cls-3{fill:none;stroke-linecap:round;stroke-linejoin:round;}.cls-1{stroke:#ed1e79;}.cls-1,.cls-2{stroke-width:0.0283px;}.cls-2{stroke:#000;}.cls-3{stroke:#006837;stroke-width:0.0283px;}</style></defs><g id="hex_feet" data-name="hex feet"><polygon class="cls-1" points="450.264 59.187 452.924 63.794 450.264 68.4 444.945 68.4 442.286 63.794 444.945 59.187 450.264 59.187"/><polygon class="cls-1" points="809.197 59.187 811.857 63.794 809.197 68.4 803.878 68.4 801.219 63.794 803.878 59.187 809.197 59.187"/><polygon class="cls-1" points="91.331 59.187 93.991 63.794 91.331 68.4 86.012 68.4 83.353 63.794 86.012 59.187 91.331 59.187"/></g><rect id="little_foot" data-name="little foot" class="cls-2" x="60.6756" y="42.5339" width="773.8583" height="42.5197" rx="21.2598"/><path id="top_cutout" data-name="top cutout" class="cls-3" d="M162.1484,195.8743V459.6381a4.5354,4.5354,0,0,0,4.5355,4.5354h74.7637a4.5354,4.5354,0,0,0,4.5355-4.5354V411.5909a1.4173,1.4173,0,0,1,1.4173-1.4174h34.8307a1.4173,1.4173,0,0,1,1.4173,1.4174v48.0472a4.5354,4.5354,0,0,0,4.5355,4.5354H821.9476a4.5354,4.5354,0,0,0,4.5355-4.5354V411.5909a1.4173,1.4173,0,0,1,1.4173-1.4174h34.8307a1.4173,1.4173,0,0,1,1.4173,1.4174v48.0472a4.5354,4.5354,0,0,0,4.5355,4.5354h155.7637a4.5354,4.5354,0,0,0,4.5355-4.5354V195.8743a4.5355,4.5355,0,0,0-4.5355-4.5354H166.6839A4.5355,4.5355,0,0,0,162.1484,195.8743Z" transform="translate(-147.961 -165.8129)"/><g id="top_bottom_screws" data-name="top bottom screws"><circle class="cls-1" cx="12.7701" cy="12.7701" r="3.189"/><circle class="cls-1" cx="302.6598" cy="12.7701" r="3.189"/><circle class="cls-1" cx="592.5496" cy="12.7701" r="3.189"/><circle class="cls-1" cx="882.4394" cy="12.7701" r="3.189"/><circle class="cls-1" cx="12.7701" cy="311.1165" r="3.189"/><circle class="cls-1" cx="302.6598" cy="311.1165" r="3.189"/><circle class="cls-1" cx="592.5496" cy="311.1165" r="3.189"/><circle class="cls-1" cx="882.4394" cy="311.1165" r="3.189"/></g><rect id="case_outline" data-name="case outline" class="cls-2" x="0.0142" y="0.0142" width="895.1811" height="323.8583" rx="5.6693"/></svg>